<mxfile host="65bd71144e">
    <diagram id="x8S_ROrScUrhrpSDdoan" name="Page-1">
        <mxGraphModel dx="1051" dy="724" grid="1" gridSize="20" guides="1" tooltips="1" connect="1" arrows="1" fold="1" page="1" pageScale="1" pageWidth="200000" pageHeight="200000" math="0" shadow="0">
            <root>
                <mxCell id="0"/>
                <mxCell id="1" parent="0"/>
                <mxCell id="30" value="" style="whiteSpace=wrap;html=1;aspect=fixed;dashed=1;fillColor=none;" vertex="1" parent="1">
                    <mxGeometry x="950" y="320" width="190" height="190" as="geometry"/>
                </mxCell>
                <mxCell id="78" value="" style="rounded=0;whiteSpace=wrap;html=1;fillColor=none;strokeColor=#FF66FF;" vertex="1" parent="1">
                    <mxGeometry x="1120" y="1615" width="840" height="630" as="geometry"/>
                </mxCell>
                <mxCell id="67" value="" style="edgeStyle=none;html=1;" edge="1" parent="1" source="46" target="66">
                    <mxGeometry relative="1" as="geometry"/>
                </mxCell>
                <mxCell id="98" style="edgeStyle=none;html=1;entryX=1;entryY=0.5;entryDx=0;entryDy=0;entryPerimeter=0;exitX=0;exitY=0.406;exitDx=0;exitDy=0;exitPerimeter=0;" edge="1" parent="1" source="46" target="25">
                    <mxGeometry relative="1" as="geometry"/>
                </mxCell>
                <mxCell id="46" value="" style="rounded=0;whiteSpace=wrap;html=1;fillColor=none;strokeColor=#33FF33;" vertex="1" parent="1">
                    <mxGeometry x="1540" y="390" width="440" height="530" as="geometry"/>
                </mxCell>
                <mxCell id="3" value="" style="rounded=0;whiteSpace=wrap;html=1;" vertex="1" parent="1">
                    <mxGeometry x="120" y="90" width="120" height="60" as="geometry"/>
                </mxCell>
                <mxCell id="4" value="" style="rounded=0;whiteSpace=wrap;html=1;rotation=90;" vertex="1" parent="1">
                    <mxGeometry x="-27.5" y="400" width="415" height="50" as="geometry"/>
                </mxCell>
                <mxCell id="5" value="" style="endArrow=none;dashed=1;html=1;dashPattern=1 3;strokeWidth=2;" edge="1" parent="1">
                    <mxGeometry width="50" height="50" relative="1" as="geometry">
                        <mxPoint x="70" y="620" as="sourcePoint"/>
                        <mxPoint x="70" y="160" as="targetPoint"/>
                    </mxGeometry>
                </mxCell>
                <mxCell id="7" value="" style="endArrow=none;dashed=1;html=1;dashPattern=1 3;strokeWidth=2;" edge="1" parent="1">
                    <mxGeometry width="50" height="50" relative="1" as="geometry">
                        <mxPoint x="40" y="630" as="sourcePoint"/>
                        <mxPoint x="40" y="170" as="targetPoint"/>
                    </mxGeometry>
                </mxCell>
                <mxCell id="9" value="" style="group" vertex="1" connectable="0" parent="1">
                    <mxGeometry x="252.5" y="160" width="50" height="462.5" as="geometry"/>
                </mxCell>
                <mxCell id="8" value="" style="endArrow=none;dashed=1;html=1;dashPattern=1 3;strokeWidth=2;" edge="1" parent="9">
                    <mxGeometry width="50" height="50" relative="1" as="geometry">
                        <mxPoint x="27.5" y="460" as="sourcePoint"/>
                        <mxPoint x="27.5" as="targetPoint"/>
                    </mxGeometry>
                </mxCell>
                <mxCell id="6" value="" style="rounded=0;whiteSpace=wrap;html=1;rotation=90;" vertex="1" parent="9">
                    <mxGeometry x="-182.5" y="230" width="415" height="50" as="geometry"/>
                </mxCell>
                <mxCell id="13" value="Discord SSO" style="rounded=0;whiteSpace=wrap;html=1;" vertex="1" parent="1">
                    <mxGeometry x="100" y="680" width="120" height="60" as="geometry"/>
                </mxCell>
                <mxCell id="14" value="Wallet Address" style="rounded=0;whiteSpace=wrap;html=1;" vertex="1" parent="1">
                    <mxGeometry x="100" y="790" width="120" height="60" as="geometry"/>
                </mxCell>
                <mxCell id="17" value="" style="group" vertex="1" connectable="0" parent="1">
                    <mxGeometry x="460" y="40" width="180" height="180" as="geometry"/>
                </mxCell>
                <mxCell id="16" value="Smart Contract" style="text;html=1;strokeColor=none;fillColor=none;align=center;verticalAlign=middle;whiteSpace=wrap;rounded=0;dashed=1;" vertex="1" parent="17">
                    <mxGeometry x="30" y="10" width="120" height="30" as="geometry"/>
                </mxCell>
                <mxCell id="18" value="auth login,&lt;br&gt;store&amp;nbsp;" style="text;html=1;strokeColor=none;fillColor=none;align=center;verticalAlign=middle;whiteSpace=wrap;rounded=0;dashed=1;" vertex="1" parent="1">
                    <mxGeometry x="252.5" y="1100" width="320" height="200" as="geometry"/>
                </mxCell>
                <mxCell id="37" value="create whitelist/&lt;br&gt;add wl's product" style="edgeStyle=none;html=1;" edge="1" parent="1" source="19">
                    <mxGeometry relative="1" as="geometry">
                        <mxPoint x="1760" y="390" as="targetPoint"/>
                    </mxGeometry>
                </mxCell>
                <mxCell id="19" value="admin login" style="rounded=1;whiteSpace=wrap;html=1;dashed=1;fillColor=none;" vertex="1" parent="1">
                    <mxGeometry x="1700" y="245" width="120" height="60" as="geometry"/>
                </mxCell>
                <mxCell id="20" value="" style="whiteSpace=wrap;html=1;aspect=fixed;dashed=1;fillColor=none;" vertex="1" parent="1">
                    <mxGeometry x="2380" y="100" width="280" height="280" as="geometry"/>
                </mxCell>
                <mxCell id="131" style="edgeStyle=none;html=1;exitX=0.25;exitY=1;exitDx=0;exitDy=0;" edge="1" parent="1" source="21">
                    <mxGeometry relative="1" as="geometry">
                        <mxPoint x="2960" y="740" as="targetPoint"/>
                    </mxGeometry>
                </mxCell>
                <mxCell id="21" value="discord auth" style="text;html=1;strokeColor=none;fillColor=none;align=center;verticalAlign=middle;whiteSpace=wrap;rounded=0;dashed=1;" vertex="1" parent="1">
                    <mxGeometry x="2660" y="690" width="100" height="30" as="geometry"/>
                </mxCell>
                <mxCell id="31" style="edgeStyle=none;html=1;entryX=0.5;entryY=0;entryDx=0;entryDy=0;" edge="1" parent="1" target="27">
                    <mxGeometry relative="1" as="geometry">
                        <mxPoint x="1045" y="260" as="sourcePoint"/>
                    </mxGeometry>
                </mxCell>
                <mxCell id="99" style="edgeStyle=none;html=1;" edge="1" parent="1" source="22" target="30">
                    <mxGeometry relative="1" as="geometry"/>
                </mxCell>
                <mxCell id="22" value="super admin&amp;nbsp;" style="rounded=0;whiteSpace=wrap;html=1;fillColor=none;" vertex="1" parent="1">
                    <mxGeometry x="985" y="120" width="120" height="60" as="geometry"/>
                </mxCell>
                <mxCell id="24" value="add&amp;nbsp;" style="endArrow=none;html=1;entryX=0.5;entryY=1;entryDx=0;entryDy=0;" edge="1" parent="1">
                    <mxGeometry width="50" height="50" relative="1" as="geometry">
                        <mxPoint x="1045" y="330" as="sourcePoint"/>
                        <mxPoint x="1045" y="260" as="targetPoint"/>
                    </mxGeometry>
                </mxCell>
                <mxCell id="25" value="DB or&lt;br&gt;&amp;nbsp;smart contract" style="shape=cylinder3;whiteSpace=wrap;html=1;boundedLbl=1;backgroundOutline=1;size=15;fillColor=none;" vertex="1" parent="1">
                    <mxGeometry x="1245" y="550" width="140" height="110" as="geometry"/>
                </mxCell>
                <mxCell id="27" value="admin" style="rounded=1;whiteSpace=wrap;html=1;fillColor=#e51400;fontColor=#ffffff;strokeColor=#B20000;" vertex="1" parent="1">
                    <mxGeometry x="990" y="350" width="110" height="40" as="geometry"/>
                </mxCell>
                <mxCell id="28" value="admin" style="rounded=1;whiteSpace=wrap;html=1;fillColor=#e51400;fontColor=#ffffff;strokeColor=#B20000;" vertex="1" parent="1">
                    <mxGeometry x="990" y="400" width="110" height="40" as="geometry"/>
                </mxCell>
                <mxCell id="29" value="admin" style="rounded=1;whiteSpace=wrap;html=1;fillColor=#e51400;fontColor=#ffffff;strokeColor=#B20000;" vertex="1" parent="1">
                    <mxGeometry x="990" y="450" width="110" height="40" as="geometry"/>
                </mxCell>
                <mxCell id="32" style="edgeStyle=none;html=1;fontStyle=1" edge="1" parent="1" source="30" target="25">
                    <mxGeometry relative="1" as="geometry">
                        <Array as="points">
                            <mxPoint x="1315" y="415"/>
                        </Array>
                    </mxGeometry>
                </mxCell>
                <mxCell id="34" value="save" style="edgeLabel;html=1;align=center;verticalAlign=middle;resizable=0;points=[];" vertex="1" connectable="0" parent="32">
                    <mxGeometry x="-0.3152" y="6" relative="1" as="geometry">
                        <mxPoint as="offset"/>
                    </mxGeometry>
                </mxCell>
                <mxCell id="33" style="edgeStyle=none;html=1;entryX=0;entryY=0.5;entryDx=0;entryDy=0;" edge="1" parent="1" source="30" target="19">
                    <mxGeometry relative="1" as="geometry">
                        <Array as="points">
                            <mxPoint x="1260" y="275"/>
                        </Array>
                    </mxGeometry>
                </mxCell>
                <mxCell id="35" value="add list by discord or address or both" style="text;html=1;strokeColor=none;fillColor=none;align=center;verticalAlign=middle;whiteSpace=wrap;rounded=0;" vertex="1" parent="1">
                    <mxGeometry x="1065" y="220" width="75" height="40" as="geometry"/>
                </mxCell>
                <mxCell id="42" value="WL's item" style="swimlane;fontStyle=0;childLayout=stackLayout;horizontal=1;startSize=30;horizontalStack=0;resizeParent=1;resizeParentMax=0;resizeLast=0;collapsible=1;marginBottom=0;fillColor=#1ba1e2;strokeColor=#006EAF;fontColor=#ffffff;" vertex="1" parent="1">
                    <mxGeometry x="1650" y="440" width="240" height="440" as="geometry"/>
                </mxCell>
                <mxCell id="43" value="STATUS: -" style="text;strokeColor=#006EAF;fillColor=#1ba1e2;align=left;verticalAlign=middle;spacingLeft=4;spacingRight=4;overflow=hidden;points=[[0,0.5],[1,0.5]];portConstraint=eastwest;rotatable=0;fontColor=#ffffff;" vertex="1" parent="42">
                    <mxGeometry y="30" width="240" height="30" as="geometry"/>
                </mxCell>
                <mxCell id="44" value="TITLE    " style="text;strokeColor=#006EAF;fillColor=#1ba1e2;align=left;verticalAlign=middle;spacingLeft=4;spacingRight=4;overflow=hidden;points=[[0,0.5],[1,0.5]];portConstraint=eastwest;rotatable=0;fontColor=#ffffff;" vertex="1" parent="42">
                    <mxGeometry y="60" width="240" height="30" as="geometry"/>
                </mxCell>
                <mxCell id="45" value="DESC&#10;&#10;URL IMAGE&#10;&#10;PRICE&#10;&#10;WALLET ADDRESS to receive &#10;&#10;SUPPLY&#10;&#10;START TIME&#10;&#10;END TIME&#10;&#10;additional URL&#10;&#10;LIST -&gt; BUYERS&#10;&#10;CREATED_BY&#10;&#10;CREATED_AT&#10;&#10;NOTIFY TO" style="text;strokeColor=#006EAF;fillColor=#1ba1e2;align=left;verticalAlign=top;spacingLeft=4;spacingRight=4;overflow=hidden;points=[[0,0.5],[1,0.5]];portConstraint=eastwest;rotatable=0;fontColor=#ffffff;" vertex="1" parent="42">
                    <mxGeometry y="90" width="240" height="350" as="geometry"/>
                </mxCell>
                <mxCell id="96" style="edgeStyle=none;html=1;entryX=0;entryY=0.5;entryDx=0;entryDy=0;entryPerimeter=0;" edge="1" parent="1" source="51" target="25">
                    <mxGeometry relative="1" as="geometry">
                        <Array as="points">
                            <mxPoint x="1050" y="605"/>
                        </Array>
                    </mxGeometry>
                </mxCell>
                <mxCell id="97" value="save" style="edgeLabel;html=1;align=center;verticalAlign=middle;resizable=0;points=[];" vertex="1" connectable="0" parent="96">
                    <mxGeometry x="-0.2443" y="3" relative="1" as="geometry">
                        <mxPoint as="offset"/>
                    </mxGeometry>
                </mxCell>
                <mxCell id="51" value="USER" style="swimlane;fontStyle=0;childLayout=stackLayout;horizontal=1;startSize=30;horizontalStack=0;resizeParent=1;resizeParentMax=0;resizeLast=0;collapsible=1;marginBottom=0;fillColor=none;" vertex="1" parent="1">
                    <mxGeometry x="980" y="890" width="140" height="90" as="geometry"/>
                </mxCell>
                <mxCell id="52" value="ADDRESS" style="text;strokeColor=none;fillColor=none;align=left;verticalAlign=middle;spacingLeft=4;spacingRight=4;overflow=hidden;points=[[0,0.5],[1,0.5]];portConstraint=eastwest;rotatable=0;" vertex="1" parent="51">
                    <mxGeometry y="30" width="140" height="30" as="geometry"/>
                </mxCell>
                <mxCell id="53" value="DISCORD" style="text;strokeColor=none;fillColor=none;align=left;verticalAlign=middle;spacingLeft=4;spacingRight=4;overflow=hidden;points=[[0,0.5],[1,0.5]];portConstraint=eastwest;rotatable=0;" vertex="1" parent="51">
                    <mxGeometry y="60" width="140" height="30" as="geometry"/>
                </mxCell>
                <mxCell id="55" value="BUYERS" style="swimlane;fontStyle=0;childLayout=stackLayout;horizontal=1;startSize=30;horizontalStack=0;resizeParent=1;resizeParentMax=0;resizeLast=0;collapsible=1;marginBottom=0;fillColor=#76608a;fontColor=#ffffff;strokeColor=#432D57;" vertex="1" parent="1">
                    <mxGeometry x="1220" y="860" width="190" height="230" as="geometry"/>
                </mxCell>
                <mxCell id="56" value="HASH TX" style="text;strokeColor=#432D57;fillColor=#76608a;align=left;verticalAlign=middle;spacingLeft=4;spacingRight=4;overflow=hidden;points=[[0,0.5],[1,0.5]];portConstraint=eastwest;rotatable=0;fontColor=#ffffff;" vertex="1" parent="55">
                    <mxGeometry y="30" width="190" height="30" as="geometry"/>
                </mxCell>
                <mxCell id="57" value="USER" style="text;strokeColor=#432D57;fillColor=#76608a;align=left;verticalAlign=middle;spacingLeft=4;spacingRight=4;overflow=hidden;points=[[0,0.5],[1,0.5]];portConstraint=eastwest;rotatable=0;fontColor=#ffffff;" vertex="1" parent="55">
                    <mxGeometry y="60" width="190" height="30" as="geometry"/>
                </mxCell>
                <mxCell id="58" value="ITEM WL&#10;&#10;PRICE&#10;&#10;CREATED_AT&#10;&#10;SLOT NUMBER" style="text;strokeColor=#432D57;fillColor=#76608a;align=left;verticalAlign=middle;spacingLeft=4;spacingRight=4;overflow=hidden;points=[[0,0.5],[1,0.5]];portConstraint=eastwest;rotatable=0;fontColor=#ffffff;" vertex="1" parent="55">
                    <mxGeometry y="90" width="190" height="140" as="geometry"/>
                </mxCell>
                <mxCell id="60" style="edgeStyle=none;html=1;entryX=0;entryY=0.5;entryDx=0;entryDy=0;exitX=1;exitY=0.5;exitDx=0;exitDy=0;" edge="1" parent="1" source="52" target="57">
                    <mxGeometry relative="1" as="geometry">
                        <Array as="points">
                            <mxPoint x="1180" y="935"/>
                        </Array>
                    </mxGeometry>
                </mxCell>
                <mxCell id="64" value="Status CREATED" style="rounded=0;whiteSpace=wrap;html=1;labelBackgroundColor=none;strokeColor=#2D7600;fillColor=#60a917;fontColor=#ffffff;" vertex="1" parent="1">
                    <mxGeometry x="1940" y="590" width="120" height="60" as="geometry"/>
                </mxCell>
                <mxCell id="79" value="" style="edgeStyle=none;html=1;entryX=0.75;entryY=0;entryDx=0;entryDy=0;" edge="1" parent="1" source="66" target="78">
                    <mxGeometry relative="1" as="geometry"/>
                </mxCell>
                <mxCell id="66" value="" style="rounded=0;whiteSpace=wrap;html=1;fillColor=none;strokeColor=#33FFFF;" vertex="1" parent="1">
                    <mxGeometry x="1540" y="1000" width="440" height="530" as="geometry"/>
                </mxCell>
                <mxCell id="68" value="Status PUBLISHED" style="rounded=0;whiteSpace=wrap;html=1;labelBackgroundColor=none;strokeColor=#001DBC;fillColor=#0050ef;fontColor=#ffffff;" vertex="1" parent="1">
                    <mxGeometry x="1940" y="1200" width="120" height="60" as="geometry"/>
                </mxCell>
                <mxCell id="69" value="WHITELIST&amp;nbsp;" style="rounded=0;whiteSpace=wrap;html=1;labelBackgroundColor=none;strokeColor=#006EAF;fillColor=#1ba1e2;fontColor=#ffffff;" vertex="1" parent="1">
                    <mxGeometry x="32.5" y="1080" width="220" height="60" as="geometry"/>
                </mxCell>
                <mxCell id="70" value="WHITELIST&amp;nbsp;" style="rounded=0;whiteSpace=wrap;html=1;labelBackgroundColor=none;strokeColor=#006EAF;fillColor=#1ba1e2;fontColor=#ffffff;" vertex="1" parent="1">
                    <mxGeometry x="50" y="1235" width="220" height="60" as="geometry"/>
                </mxCell>
                <mxCell id="71" value="WHITELIST - PRODUCT" style="rounded=0;whiteSpace=wrap;html=1;labelBackgroundColor=none;strokeColor=#006EAF;fillColor=#1ba1e2;fontColor=#ffffff;" vertex="1" parent="1">
                    <mxGeometry x="1650" y="1360" width="220" height="60" as="geometry"/>
                </mxCell>
                <mxCell id="72" value="WHITELIST&amp;nbsp;" style="rounded=0;whiteSpace=wrap;html=1;labelBackgroundColor=none;strokeColor=#006EAF;fillColor=#1ba1e2;fontColor=#ffffff;" vertex="1" parent="1">
                    <mxGeometry x="110" y="1360" width="220" height="60" as="geometry"/>
                </mxCell>
                <mxCell id="73" value="WHITELIST - PRODUCT" style="rounded=0;whiteSpace=wrap;html=1;labelBackgroundColor=none;strokeColor=#006EAF;fillColor=#1ba1e2;fontColor=#ffffff;" vertex="1" parent="1">
                    <mxGeometry x="1650" y="1260" width="220" height="60" as="geometry"/>
                </mxCell>
                <mxCell id="74" value="WHITELIST - PRODUCT" style="rounded=0;whiteSpace=wrap;html=1;labelBackgroundColor=none;strokeColor=#006EAF;fillColor=#1ba1e2;fontColor=#ffffff;" vertex="1" parent="1">
                    <mxGeometry x="1650" y="1170" width="220" height="60" as="geometry"/>
                </mxCell>
                <mxCell id="75" value="WHITELIST - PRODUCT" style="rounded=0;whiteSpace=wrap;html=1;labelBackgroundColor=none;strokeColor=#006EAF;fillColor=#1ba1e2;fontColor=#ffffff;" vertex="1" parent="1">
                    <mxGeometry x="1650" y="1080" width="220" height="60" as="geometry"/>
                </mxCell>
                <mxCell id="80" value="Status TIMES UP" style="rounded=0;whiteSpace=wrap;html=1;labelBackgroundColor=none;strokeColor=#B266FF;fillColor=#B266FF;fontColor=#000000;" vertex="1" parent="1">
                    <mxGeometry x="1915" y="1900" width="120" height="60" as="geometry"/>
                </mxCell>
                <mxCell id="81" value="actually no need to update status product time's up.&lt;br&gt;&lt;br&gt;it's combination of PUBLISHED STATUS + TIMES UP" style="text;html=1;strokeColor=none;fillColor=none;align=center;verticalAlign=middle;whiteSpace=wrap;rounded=0;labelBackgroundColor=none;" vertex="1" parent="1">
                    <mxGeometry x="1980" y="1720" width="160" height="90" as="geometry"/>
                </mxCell>
                <mxCell id="83" style="edgeStyle=none;html=1;entryX=0;entryY=0.943;entryDx=0;entryDy=0;entryPerimeter=0;fillColor=#e3c800;strokeColor=#B09500;" edge="1" parent="1" source="82" target="66">
                    <mxGeometry relative="1" as="geometry">
                        <Array as="points">
                            <mxPoint x="660" y="1500"/>
                        </Array>
                    </mxGeometry>
                </mxCell>
                <mxCell id="84" value="CAN SEE LIST" style="edgeLabel;html=1;align=center;verticalAlign=middle;resizable=0;points=[];" vertex="1" connectable="0" parent="83">
                    <mxGeometry x="-0.6906" y="-1" relative="1" as="geometry">
                        <mxPoint as="offset"/>
                    </mxGeometry>
                </mxCell>
                <mxCell id="82" value="USER" style="rounded=0;whiteSpace=wrap;html=1;labelBackgroundColor=none;strokeColor=#33FFFF;fillColor=none;" vertex="1" parent="1">
                    <mxGeometry x="600" y="720" width="120" height="60" as="geometry"/>
                </mxCell>
                <mxCell id="90" style="edgeStyle=none;html=1;entryX=-0.009;entryY=0.378;entryDx=0;entryDy=0;entryPerimeter=0;fillColor=#e3c800;strokeColor=#B09500;" edge="1" parent="1" source="85" target="66">
                    <mxGeometry relative="1" as="geometry"/>
                </mxCell>
                <mxCell id="101" value="PURCHASE w METAMASK" style="edgeLabel;html=1;align=center;verticalAlign=middle;resizable=0;points=[];" vertex="1" connectable="0" parent="90">
                    <mxGeometry x="-0.0493" y="-1" relative="1" as="geometry">
                        <mxPoint x="1" as="offset"/>
                    </mxGeometry>
                </mxCell>
                <mxCell id="85" value="User login discord SSO + wallet" style="rounded=0;whiteSpace=wrap;html=1;labelBackgroundColor=none;strokeColor=#33FFFF;fillColor=none;" vertex="1" parent="1">
                    <mxGeometry x="840" y="1170" width="120" height="60" as="geometry"/>
                </mxCell>
                <mxCell id="87" value="" style="endArrow=classic;html=1;entryX=0.5;entryY=1;entryDx=0;entryDy=0;fillColor=#e3c800;strokeColor=#B09500;" edge="1" parent="1" target="85">
                    <mxGeometry width="50" height="50" relative="1" as="geometry">
                        <mxPoint x="900" y="1500" as="sourcePoint"/>
                        <mxPoint x="890" y="1380" as="targetPoint"/>
                    </mxGeometry>
                </mxCell>
                <mxCell id="88" value="want to buy" style="edgeLabel;html=1;align=center;verticalAlign=middle;resizable=0;points=[];" vertex="1" connectable="0" parent="87">
                    <mxGeometry x="0.1296" y="-1" relative="1" as="geometry">
                        <mxPoint as="offset"/>
                    </mxGeometry>
                </mxCell>
                <mxCell id="93" value="" style="endArrow=none;dashed=1;html=1;dashPattern=1 3;strokeWidth=2;exitX=0.5;exitY=0;exitDx=0;exitDy=0;" edge="1" parent="1" source="55">
                    <mxGeometry width="50" height="50" relative="1" as="geometry">
                        <mxPoint x="1040" y="1170" as="sourcePoint"/>
                        <mxPoint x="1640" y="760" as="targetPoint"/>
                        <Array as="points">
                            <mxPoint x="1315" y="760"/>
                        </Array>
                    </mxGeometry>
                </mxCell>
                <mxCell id="94" value="" style="endArrow=none;dashed=1;html=1;entryX=0.429;entryY=1;entryDx=0;entryDy=0;entryPerimeter=0;" edge="1" parent="1" target="53">
                    <mxGeometry width="50" height="50" relative="1" as="geometry">
                        <mxPoint x="1040" y="1200" as="sourcePoint"/>
                        <mxPoint x="1070" y="1100" as="targetPoint"/>
                    </mxGeometry>
                </mxCell>
                <mxCell id="95" value="save" style="edgeLabel;html=1;align=center;verticalAlign=middle;resizable=0;points=[];" vertex="1" connectable="0" parent="94">
                    <mxGeometry x="0.2558" y="-2" relative="1" as="geometry">
                        <mxPoint as="offset"/>
                    </mxGeometry>
                </mxCell>
                <mxCell id="103" value="" style="endArrow=classic;html=1;entryX=0.34;entryY=1.045;entryDx=0;entryDy=0;entryPerimeter=0;" edge="1" parent="1" target="58">
                    <mxGeometry width="50" height="50" relative="1" as="geometry">
                        <mxPoint x="1285" y="1190" as="sourcePoint"/>
                        <mxPoint x="1310" y="1140" as="targetPoint"/>
                    </mxGeometry>
                </mxCell>
                <mxCell id="105" value="" style="endArrow=classic;html=1;" edge="1" parent="1">
                    <mxGeometry width="50" height="50" relative="1" as="geometry">
                        <mxPoint x="1280" y="850" as="sourcePoint"/>
                        <mxPoint x="1280" y="660" as="targetPoint"/>
                    </mxGeometry>
                </mxCell>
                <mxCell id="111" style="edgeStyle=none;html=1;entryX=0;entryY=0.75;entryDx=0;entryDy=0;" edge="1" parent="1" source="107" target="108">
                    <mxGeometry relative="1" as="geometry"/>
                </mxCell>
                <mxCell id="112" style="edgeStyle=none;html=1;" edge="1" parent="1" source="107" target="109">
                    <mxGeometry relative="1" as="geometry"/>
                </mxCell>
                <mxCell id="113" style="edgeStyle=none;html=1;" edge="1" parent="1" source="107" target="110">
                    <mxGeometry relative="1" as="geometry"/>
                </mxCell>
                <mxCell id="107" value="WHITELIST - PRODUCT" style="rounded=0;whiteSpace=wrap;html=1;labelBackgroundColor=none;strokeColor=#006EAF;fillColor=#1ba1e2;fontColor=#ffffff;" vertex="1" parent="1">
                    <mxGeometry x="1245" y="1720" width="220" height="60" as="geometry"/>
                </mxCell>
                <mxCell id="108" value="BUYER" style="rounded=0;whiteSpace=wrap;html=1;labelBackgroundColor=none;strokeColor=#432D57;fillColor=#76608a;fontColor=#ffffff;" vertex="1" parent="1">
                    <mxGeometry x="1560" y="1680" width="120" height="60" as="geometry"/>
                </mxCell>
                <mxCell id="109" value="BUYER" style="rounded=0;whiteSpace=wrap;html=1;labelBackgroundColor=none;strokeColor=#432D57;fillColor=#76608a;fontColor=#ffffff;" vertex="1" parent="1">
                    <mxGeometry x="1560" y="1760" width="120" height="60" as="geometry"/>
                </mxCell>
                <mxCell id="110" value="BUYER" style="rounded=0;whiteSpace=wrap;html=1;labelBackgroundColor=none;strokeColor=#432D57;fillColor=#76608a;fontColor=#ffffff;" vertex="1" parent="1">
                    <mxGeometry x="1560" y="1840" width="120" height="60" as="geometry"/>
                </mxCell>
                <mxCell id="114" style="edgeStyle=none;html=1;entryX=0;entryY=0.75;entryDx=0;entryDy=0;" edge="1" source="117" target="118" parent="1">
                    <mxGeometry relative="1" as="geometry"/>
                </mxCell>
                <mxCell id="115" style="edgeStyle=none;html=1;" edge="1" source="117" target="119" parent="1">
                    <mxGeometry relative="1" as="geometry"/>
                </mxCell>
                <mxCell id="116" style="edgeStyle=none;html=1;" edge="1" source="117" target="120" parent="1">
                    <mxGeometry relative="1" as="geometry"/>
                </mxCell>
                <mxCell id="117" value="WHITELIST - PRODUCT" style="rounded=0;whiteSpace=wrap;html=1;labelBackgroundColor=none;strokeColor=#006EAF;fillColor=#1ba1e2;fontColor=#ffffff;" vertex="1" parent="1">
                    <mxGeometry x="1245" y="1960" width="220" height="60" as="geometry"/>
                </mxCell>
                <mxCell id="118" value="BUYER" style="rounded=0;whiteSpace=wrap;html=1;labelBackgroundColor=none;strokeColor=#432D57;fillColor=#76608a;fontColor=#ffffff;" vertex="1" parent="1">
                    <mxGeometry x="1560" y="1920" width="120" height="60" as="geometry"/>
                </mxCell>
                <mxCell id="119" value="BUYER" style="rounded=0;whiteSpace=wrap;html=1;labelBackgroundColor=none;strokeColor=#432D57;fillColor=#76608a;fontColor=#ffffff;" vertex="1" parent="1">
                    <mxGeometry x="1560" y="2000" width="120" height="60" as="geometry"/>
                </mxCell>
                <mxCell id="120" value="BUYER" style="rounded=0;whiteSpace=wrap;html=1;labelBackgroundColor=none;strokeColor=#432D57;fillColor=#76608a;fontColor=#ffffff;" vertex="1" parent="1">
                    <mxGeometry x="1560" y="2080" width="120" height="60" as="geometry"/>
                </mxCell>
                <mxCell id="15" value="" style="whiteSpace=wrap;html=1;aspect=fixed;fillColor=none;dashed=1;" vertex="1" parent="1">
                    <mxGeometry x="20" y="1480" width="180" height="180" as="geometry"/>
                </mxCell>
                <mxCell id="122" style="edgeStyle=none;html=1;entryX=-0.002;entryY=0.441;entryDx=0;entryDy=0;entryPerimeter=0;" edge="1" parent="1" source="121" target="78">
                    <mxGeometry relative="1" as="geometry"/>
                </mxCell>
                <mxCell id="129" value="generate into csv /excel&amp;nbsp;" style="edgeLabel;html=1;align=center;verticalAlign=middle;resizable=0;points=[];" vertex="1" connectable="0" parent="122">
                    <mxGeometry x="-0.0219" y="1" relative="1" as="geometry">
                        <mxPoint as="offset"/>
                    </mxGeometry>
                </mxCell>
                <mxCell id="121" value="ADMIN&amp;nbsp;" style="rounded=0;whiteSpace=wrap;html=1;labelBackgroundColor=none;strokeColor=#B20000;fillColor=#e51400;fontColor=#ffffff;" vertex="1" parent="1">
                    <mxGeometry x="800" y="1860" width="120" height="60" as="geometry"/>
                </mxCell>
                <mxCell id="126" value="CLIENT/PARTNER" style="rounded=0;whiteSpace=wrap;html=1;labelBackgroundColor=none;strokeColor=#3A5431;fillColor=#6d8764;fontColor=#ffffff;" vertex="1" parent="1">
                    <mxGeometry x="960" y="2300" width="120" height="60" as="geometry"/>
                </mxCell>
                <mxCell id="127" value="" style="endArrow=classic;html=1;entryX=0.5;entryY=0;entryDx=0;entryDy=0;" edge="1" parent="1" target="126">
                    <mxGeometry width="50" height="50" relative="1" as="geometry">
                        <mxPoint x="1020" y="1900" as="sourcePoint"/>
                        <mxPoint x="830" y="2180" as="targetPoint"/>
                    </mxGeometry>
                </mxCell>
                <mxCell id="128" value="notify" style="edgeLabel;html=1;align=center;verticalAlign=middle;resizable=0;points=[];" vertex="1" connectable="0" parent="127">
                    <mxGeometry x="-0.145" relative="1" as="geometry">
                        <mxPoint y="-1" as="offset"/>
                    </mxGeometry>
                </mxCell>
                <mxCell id="132" value="" style="whiteSpace=wrap;html=1;aspect=fixed;labelBackgroundColor=none;strokeColor=#FF66FF;fillColor=#B266FF;" vertex="1" parent="1">
                    <mxGeometry x="330" y="2880" width="80" height="80" as="geometry"/>
                </mxCell>
                <mxCell id="133" value="Vertical Container" style="swimlane;labelBackgroundColor=none;strokeColor=#FF66FF;fillColor=#B266FF;" vertex="1" parent="1">
                    <mxGeometry x="760" y="3140" width="660" height="360" as="geometry"/>
                </mxCell>
                <mxCell id="135" value="Actor" style="shape=umlActor;verticalLabelPosition=bottom;verticalAlign=top;html=1;outlineConnect=0;labelBackgroundColor=none;strokeColor=#FF66FF;fillColor=#B266FF;" vertex="1" parent="1">
                    <mxGeometry x="640" y="650" width="30" height="60" as="geometry"/>
                </mxCell>
                <mxCell id="136" value="Actor" style="shape=umlActor;verticalLabelPosition=bottom;verticalAlign=top;html=1;outlineConnect=0;labelBackgroundColor=none;strokeColor=#FF66FF;fillColor=#B266FF;" vertex="1" parent="1">
                    <mxGeometry x="929" y="395" width="30" height="60" as="geometry"/>
                </mxCell>
                <mxCell id="137" value="Actor" style="shape=umlActor;verticalLabelPosition=bottom;verticalAlign=top;html=1;outlineConnect=0;labelBackgroundColor=none;strokeColor=#FF66FF;fillColor=#B266FF;" vertex="1" parent="1">
                    <mxGeometry x="844" y="1800" width="30" height="60" as="geometry"/>
                </mxCell>
                <mxCell id="138" value="Actor" style="shape=umlActor;verticalLabelPosition=bottom;verticalAlign=top;html=1;outlineConnect=0;labelBackgroundColor=none;strokeColor=#FF66FF;fillColor=#B266FF;" vertex="1" parent="1">
                    <mxGeometry x="898" y="2300" width="30" height="60" as="geometry"/>
                </mxCell>
                <mxCell id="141" value="BACKEND" style="rounded=0;whiteSpace=wrap;html=1;labelBackgroundColor=none;strokeColor=#FF66FF;fillColor=#B266FF;" vertex="1" parent="1">
                    <mxGeometry x="3590" y="1980" width="120" height="60" as="geometry"/>
                </mxCell>
                <mxCell id="142" value="" style="group" vertex="1" connectable="0" parent="1">
                    <mxGeometry x="3182.5" y="2040" width="50" height="462.5" as="geometry"/>
                </mxCell>
                <mxCell id="143" value="" style="endArrow=none;dashed=1;html=1;dashPattern=1 3;strokeWidth=2;" edge="1" parent="142">
                    <mxGeometry width="50" height="50" relative="1" as="geometry">
                        <mxPoint x="27.5" y="460" as="sourcePoint"/>
                        <mxPoint x="27.5" as="targetPoint"/>
                    </mxGeometry>
                </mxCell>
                <mxCell id="144" value="" style="rounded=0;whiteSpace=wrap;html=1;rotation=90;" vertex="1" parent="142">
                    <mxGeometry x="-182.5" y="230" width="415" height="50" as="geometry"/>
                </mxCell>
                <mxCell id="145" value="ALICE" style="rounded=0;whiteSpace=wrap;html=1;labelBackgroundColor=none;strokeColor=#6F0000;fillColor=#a20025;fontColor=#ffffff;" vertex="1" parent="1">
                    <mxGeometry x="3147.5" y="1980" width="120" height="60" as="geometry"/>
                </mxCell>
                <mxCell id="146" value="" style="group" vertex="1" connectable="0" parent="1">
                    <mxGeometry x="3000" y="2040" width="50" height="462.5" as="geometry"/>
                </mxCell>
                <mxCell id="147" value="" style="endArrow=none;dashed=1;html=1;dashPattern=1 3;strokeWidth=2;" edge="1" parent="146">
                    <mxGeometry width="50" height="50" relative="1" as="geometry">
                        <mxPoint x="27.5" y="460" as="sourcePoint"/>
                        <mxPoint x="27.5" as="targetPoint"/>
                    </mxGeometry>
                </mxCell>
                <mxCell id="148" value="" style="rounded=0;whiteSpace=wrap;html=1;rotation=90;" vertex="1" parent="146">
                    <mxGeometry x="-182.5" y="230" width="415" height="50" as="geometry"/>
                </mxCell>
                <mxCell id="149" value="BOB" style="rounded=0;whiteSpace=wrap;html=1;labelBackgroundColor=none;strokeColor=#3700CC;fillColor=#6a00ff;fontColor=#ffffff;" vertex="1" parent="1">
                    <mxGeometry x="2965" y="1980" width="120" height="60" as="geometry"/>
                </mxCell>
                <mxCell id="150" value="" style="group" vertex="1" connectable="0" parent="1">
                    <mxGeometry x="3622.5" y="2040" width="50" height="462.5" as="geometry"/>
                </mxCell>
                <mxCell id="151" value="" style="endArrow=none;dashed=1;html=1;dashPattern=1 3;strokeWidth=2;" edge="1" parent="150">
                    <mxGeometry width="50" height="50" relative="1" as="geometry">
                        <mxPoint x="27.5" y="460" as="sourcePoint"/>
                        <mxPoint x="27.5" as="targetPoint"/>
                    </mxGeometry>
                </mxCell>
                <mxCell id="152" value="" style="rounded=0;whiteSpace=wrap;html=1;rotation=90;" vertex="1" parent="150">
                    <mxGeometry x="-182.5" y="230" width="415" height="50" as="geometry"/>
                </mxCell>
                <mxCell id="153" value="APP" style="rounded=0;whiteSpace=wrap;html=1;labelBackgroundColor=none;strokeColor=#001DBC;fillColor=#0050ef;fontColor=#ffffff;" vertex="1" parent="1">
                    <mxGeometry x="3367.5" y="1980" width="120" height="60" as="geometry"/>
                </mxCell>
                <mxCell id="154" value="" style="endArrow=classic;html=1;" edge="1" parent="1">
                    <mxGeometry width="50" height="50" relative="1" as="geometry">
                        <mxPoint x="3240" y="2160" as="sourcePoint"/>
                        <mxPoint x="3400" y="2160" as="targetPoint"/>
                    </mxGeometry>
                </mxCell>
                <mxCell id="155" value="Select product" style="text;html=1;strokeColor=none;fillColor=none;align=center;verticalAlign=middle;whiteSpace=wrap;rounded=0;labelBackgroundColor=none;" vertex="1" parent="1">
                    <mxGeometry x="3268" y="2120" width="72" height="30" as="geometry"/>
                </mxCell>
                <mxCell id="156" value="" style="endArrow=classic;html=1;" edge="1" parent="1">
                    <mxGeometry width="50" height="50" relative="1" as="geometry">
                        <mxPoint x="3620" y="2240" as="sourcePoint"/>
                        <mxPoint x="3240" y="2240" as="targetPoint"/>
                    </mxGeometry>
                </mxCell>
                <mxCell id="157" value="" style="endArrow=classic;html=1;" edge="1" parent="1">
                    <mxGeometry width="50" height="50" relative="1" as="geometry">
                        <mxPoint x="3460" y="2160" as="sourcePoint"/>
                        <mxPoint x="3620" y="2160" as="targetPoint"/>
                    </mxGeometry>
                </mxCell>
                <mxCell id="158" value="check slot" style="text;html=1;strokeColor=none;fillColor=none;align=center;verticalAlign=middle;whiteSpace=wrap;rounded=0;labelBackgroundColor=none;" vertex="1" parent="1">
                    <mxGeometry x="3500" y="2120" width="60" height="30" as="geometry"/>
                </mxCell>
                <mxCell id="159" value="give slot" style="text;html=1;strokeColor=none;fillColor=none;align=center;verticalAlign=middle;whiteSpace=wrap;rounded=0;labelBackgroundColor=none;" vertex="1" parent="1">
                    <mxGeometry x="3500" y="2215" width="60" height="30" as="geometry"/>
                </mxCell>
                <mxCell id="162" value="time remaining" style="text;html=1;strokeColor=none;fillColor=none;align=center;verticalAlign=middle;whiteSpace=wrap;rounded=0;labelBackgroundColor=none;" vertex="1" parent="1">
                    <mxGeometry x="3268" y="2200" width="80" height="30" as="geometry"/>
                </mxCell>
                <mxCell id="160" value="" style="endArrow=classic;html=1;" edge="1" parent="1">
                    <mxGeometry width="50" height="50" relative="1" as="geometry">
                        <mxPoint x="3242.5" y="2329.57" as="sourcePoint"/>
                        <mxPoint x="3402.5" y="2329.57" as="targetPoint"/>
                    </mxGeometry>
                </mxCell>
                <mxCell id="161" value="PAY METAMASK" style="edgeLabel;html=1;align=center;verticalAlign=middle;resizable=0;points=[];" vertex="1" connectable="0" parent="160">
                    <mxGeometry x="-0.1516" y="2" relative="1" as="geometry">
                        <mxPoint as="offset"/>
                    </mxGeometry>
                </mxCell>
                <mxCell id="164" value="" style="endArrow=classic;html=1;exitX=1.021;exitY=0.779;exitDx=0;exitDy=0;exitPerimeter=0;" edge="1" parent="1" source="163">
                    <mxGeometry width="50" height="50" relative="1" as="geometry">
                        <mxPoint x="3500" y="2510" as="sourcePoint"/>
                        <mxPoint x="3620" y="2400" as="targetPoint"/>
                    </mxGeometry>
                </mxCell>
                <mxCell id="165" value="update slot" style="text;html=1;strokeColor=none;fillColor=none;align=center;verticalAlign=middle;whiteSpace=wrap;rounded=0;labelBackgroundColor=none;" vertex="1" parent="1">
                    <mxGeometry x="3500" y="2380" width="80" height="30" as="geometry"/>
                </mxCell>
                <mxCell id="167" value="" style="endArrow=classic;html=1;entryX=0.478;entryY=0.981;entryDx=0;entryDy=0;entryPerimeter=0;exitX=0.478;exitY=-0.002;exitDx=0;exitDy=0;exitPerimeter=0;" edge="1" parent="1" source="148" target="152">
                    <mxGeometry width="50" height="50" relative="1" as="geometry">
                        <mxPoint x="3100" y="2290" as="sourcePoint"/>
                        <mxPoint x="3150" y="2240" as="targetPoint"/>
                    </mxGeometry>
                </mxCell>
                <mxCell id="10" value="" style="group" vertex="1" connectable="0" parent="1">
                    <mxGeometry x="3402.5" y="2040" width="80" height="462.5" as="geometry"/>
                </mxCell>
                <mxCell id="11" value="" style="endArrow=none;dashed=1;html=1;dashPattern=1 3;strokeWidth=2;" edge="1" parent="10">
                    <mxGeometry width="50" height="50" relative="1" as="geometry">
                        <mxPoint x="27.5" y="460" as="sourcePoint"/>
                        <mxPoint x="27.5" as="targetPoint"/>
                    </mxGeometry>
                </mxCell>
                <mxCell id="12" value="" style="rounded=0;whiteSpace=wrap;html=1;rotation=90;" vertex="1" parent="10">
                    <mxGeometry x="-182.5" y="230" width="415" height="50" as="geometry"/>
                </mxCell>
                <mxCell id="163" value="metamask&lt;br&gt;confirmation&amp;nbsp;&lt;br&gt;duration" style="rounded=0;whiteSpace=wrap;html=1;labelBackgroundColor=none;strokeColor=#BD7000;fillColor=#f0a30a;fontColor=#000000;" vertex="1" parent="10">
                    <mxGeometry y="220" width="80" height="180" as="geometry"/>
                </mxCell>
                <mxCell id="168" value="trying to purchase" style="text;html=1;strokeColor=none;fillColor=none;align=center;verticalAlign=middle;whiteSpace=wrap;rounded=0;labelBackgroundColor=none;" vertex="1" parent="1">
                    <mxGeometry x="3088" y="2256" width="60" height="30" as="geometry"/>
                </mxCell>
                <mxCell id="170" value="CANCEL" style="endArrow=classic;html=1;exitX=0.007;exitY=0.771;exitDx=0;exitDy=0;entryX=0.75;entryY=0;entryDx=0;entryDy=0;exitPerimeter=0;fillColor=#e51400;strokeColor=#B20000;" edge="1" parent="1" source="163" target="144">
                    <mxGeometry x="-0.026" width="50" height="50" relative="1" as="geometry">
                        <mxPoint x="3280" y="2410" as="sourcePoint"/>
                        <mxPoint x="3240" y="2400" as="targetPoint"/>
                        <mxPoint as="offset"/>
                    </mxGeometry>
                </mxCell>
                <mxCell id="172" value="PAYMENT" style="text;html=1;strokeColor=none;fillColor=none;align=center;verticalAlign=middle;whiteSpace=wrap;rounded=0;labelBackgroundColor=none;fontColor=#FF0000;" vertex="1" parent="1">
                    <mxGeometry x="2980" y="950" width="60" height="30" as="geometry"/>
                </mxCell>
                <mxCell id="173" value="VERSI BACKEND" style="text;html=1;strokeColor=none;fillColor=none;align=center;verticalAlign=middle;whiteSpace=wrap;rounded=0;labelBackgroundColor=none;fontColor=#FF0000;" vertex="1" parent="1">
                    <mxGeometry x="1480" y="180" width="120" height="30" as="geometry"/>
                </mxCell>
                <mxCell id="174" value="versi SMART CONTRACT AS BACKEND" style="text;html=1;strokeColor=none;fillColor=none;align=center;verticalAlign=middle;whiteSpace=wrap;rounded=0;labelBackgroundColor=none;fontColor=#FF0000;" vertex="1" parent="1">
                    <mxGeometry x="2420" y="500" width="60" height="30" as="geometry"/>
                </mxCell>
            </root>
        </mxGraphModel>
    </diagram>
</mxfile>